<mxfile host="app.diagrams.net" modified="2023-04-06T19:58:41.993Z" agent="Mozilla/5.0 (Windows NT 10.0; Win64; x64) AppleWebKit/537.36 (KHTML, like Gecko) Chrome/110.0.0.0 Safari/537.36 OPR/96.0.0.0" etag="xzKWU44BTah31VTHILOa" version="21.1.4" type="device">
  <diagram name="Página-1" id="KBLrrJdj63W0svk73bZS">
    <mxGraphModel dx="1682" dy="903" grid="1" gridSize="10" guides="1" tooltips="1" connect="1" arrows="1" fold="1" page="1" pageScale="1" pageWidth="827" pageHeight="1169" math="0" shadow="0">
      <root>
        <mxCell id="0" />
        <mxCell id="1" parent="0" />
        <mxCell id="ffDPtfNpPZA-tGdA2Cg8-3" value="" style="edgeStyle=orthogonalEdgeStyle;rounded=0;orthogonalLoop=1;jettySize=auto;html=1;" edge="1" parent="1" source="ffDPtfNpPZA-tGdA2Cg8-1" target="ffDPtfNpPZA-tGdA2Cg8-2">
          <mxGeometry relative="1" as="geometry" />
        </mxCell>
        <mxCell id="ffDPtfNpPZA-tGdA2Cg8-1" value="Inicio" style="ellipse;whiteSpace=wrap;html=1;" vertex="1" parent="1">
          <mxGeometry x="170" y="40" width="120" height="80" as="geometry" />
        </mxCell>
        <mxCell id="ffDPtfNpPZA-tGdA2Cg8-5" value="" style="edgeStyle=orthogonalEdgeStyle;rounded=0;orthogonalLoop=1;jettySize=auto;html=1;" edge="1" parent="1" source="ffDPtfNpPZA-tGdA2Cg8-2" target="ffDPtfNpPZA-tGdA2Cg8-4">
          <mxGeometry relative="1" as="geometry" />
        </mxCell>
        <mxCell id="ffDPtfNpPZA-tGdA2Cg8-2" value="Imagens de câmeras de vigilância&amp;nbsp;" style="shape=parallelogram;perimeter=parallelogramPerimeter;whiteSpace=wrap;html=1;fixedSize=1;" vertex="1" parent="1">
          <mxGeometry x="170" y="160" width="120" height="60" as="geometry" />
        </mxCell>
        <mxCell id="ffDPtfNpPZA-tGdA2Cg8-7" value="" style="edgeStyle=orthogonalEdgeStyle;rounded=0;orthogonalLoop=1;jettySize=auto;html=1;" edge="1" parent="1" source="ffDPtfNpPZA-tGdA2Cg8-4" target="ffDPtfNpPZA-tGdA2Cg8-6">
          <mxGeometry relative="1" as="geometry" />
        </mxCell>
        <mxCell id="ffDPtfNpPZA-tGdA2Cg8-4" value="Processamento no Kinsesis em tempo real" style="whiteSpace=wrap;html=1;" vertex="1" parent="1">
          <mxGeometry x="10" y="260" width="120" height="60" as="geometry" />
        </mxCell>
        <mxCell id="ffDPtfNpPZA-tGdA2Cg8-9" style="edgeStyle=orthogonalEdgeStyle;rounded=0;orthogonalLoop=1;jettySize=auto;html=1;" edge="1" parent="1" source="ffDPtfNpPZA-tGdA2Cg8-6" target="ffDPtfNpPZA-tGdA2Cg8-8">
          <mxGeometry relative="1" as="geometry" />
        </mxCell>
        <mxCell id="ffDPtfNpPZA-tGdA2Cg8-13" value="" style="edgeStyle=orthogonalEdgeStyle;rounded=0;orthogonalLoop=1;jettySize=auto;html=1;" edge="1" parent="1" source="ffDPtfNpPZA-tGdA2Cg8-6" target="ffDPtfNpPZA-tGdA2Cg8-12">
          <mxGeometry relative="1" as="geometry" />
        </mxCell>
        <mxCell id="ffDPtfNpPZA-tGdA2Cg8-6" value="ingestão e armazenamento do vídeo em bucket s3&lt;br&gt;(para armazenamento seguro e escalavel)" style="whiteSpace=wrap;html=1;" vertex="1" parent="1">
          <mxGeometry x="210" y="260" width="120" height="60" as="geometry" />
        </mxCell>
        <mxCell id="ffDPtfNpPZA-tGdA2Cg8-8" value="Fim Kinesis" style="ellipse;whiteSpace=wrap;html=1;" vertex="1" parent="1">
          <mxGeometry x="430" y="265" width="130" height="50" as="geometry" />
        </mxCell>
        <mxCell id="ffDPtfNpPZA-tGdA2Cg8-15" value="" style="edgeStyle=orthogonalEdgeStyle;rounded=0;orthogonalLoop=1;jettySize=auto;html=1;" edge="1" parent="1" source="ffDPtfNpPZA-tGdA2Cg8-12" target="ffDPtfNpPZA-tGdA2Cg8-14">
          <mxGeometry relative="1" as="geometry" />
        </mxCell>
        <mxCell id="ffDPtfNpPZA-tGdA2Cg8-12" value="Imagens vindas do bucket" style="shape=parallelogram;perimeter=parallelogramPerimeter;whiteSpace=wrap;html=1;fixedSize=1;" vertex="1" parent="1">
          <mxGeometry x="210" y="380" width="120" height="60" as="geometry" />
        </mxCell>
        <mxCell id="ffDPtfNpPZA-tGdA2Cg8-17" value="" style="edgeStyle=orthogonalEdgeStyle;rounded=0;orthogonalLoop=1;jettySize=auto;html=1;" edge="1" parent="1" source="ffDPtfNpPZA-tGdA2Cg8-14" target="ffDPtfNpPZA-tGdA2Cg8-16">
          <mxGeometry relative="1" as="geometry" />
        </mxCell>
        <mxCell id="ffDPtfNpPZA-tGdA2Cg8-14" value="Criação/Modificação do modelo SageMaker" style="whiteSpace=wrap;html=1;" vertex="1" parent="1">
          <mxGeometry x="210" y="470" width="120" height="60" as="geometry" />
        </mxCell>
        <mxCell id="ffDPtfNpPZA-tGdA2Cg8-19" style="edgeStyle=orthogonalEdgeStyle;rounded=0;orthogonalLoop=1;jettySize=auto;html=1;" edge="1" parent="1" source="ffDPtfNpPZA-tGdA2Cg8-16" target="ffDPtfNpPZA-tGdA2Cg8-18">
          <mxGeometry relative="1" as="geometry" />
        </mxCell>
        <mxCell id="ffDPtfNpPZA-tGdA2Cg8-16" value="&#xa;&lt;span style=&quot;color: rgb(0, 0, 0); font-family: Helvetica; font-size: 12px; font-style: normal; font-variant-ligatures: normal; font-variant-caps: normal; font-weight: 400; letter-spacing: normal; orphans: 2; text-align: center; text-indent: 0px; text-transform: none; widows: 2; word-spacing: 0px; -webkit-text-stroke-width: 0px; background-color: rgb(251, 251, 251); text-decoration-thickness: initial; text-decoration-style: initial; text-decoration-color: initial; float: none; display: inline !important;&quot;&gt;Treinamento do modelo no SageMaker&lt;/span&gt;&#xa;&#xa;" style="whiteSpace=wrap;html=1;" vertex="1" parent="1">
          <mxGeometry x="210" y="585" width="120" height="60" as="geometry" />
        </mxCell>
        <mxCell id="ffDPtfNpPZA-tGdA2Cg8-18" value="Fim SageMaker" style="ellipse;whiteSpace=wrap;html=1;" vertex="1" parent="1">
          <mxGeometry x="430" y="587.5" width="100" height="55" as="geometry" />
        </mxCell>
        <mxCell id="ffDPtfNpPZA-tGdA2Cg8-22" value="" style="edgeStyle=orthogonalEdgeStyle;rounded=0;orthogonalLoop=1;jettySize=auto;html=1;" edge="1" parent="1" source="ffDPtfNpPZA-tGdA2Cg8-20" target="ffDPtfNpPZA-tGdA2Cg8-21">
          <mxGeometry relative="1" as="geometry" />
        </mxCell>
        <mxCell id="ffDPtfNpPZA-tGdA2Cg8-20" value="Inicio Rekognition" style="ellipse;whiteSpace=wrap;html=1;" vertex="1" parent="1">
          <mxGeometry x="40" y="710" width="110" height="60" as="geometry" />
        </mxCell>
        <mxCell id="ffDPtfNpPZA-tGdA2Cg8-24" value="" style="edgeStyle=orthogonalEdgeStyle;rounded=0;orthogonalLoop=1;jettySize=auto;html=1;" edge="1" parent="1" source="ffDPtfNpPZA-tGdA2Cg8-21" target="ffDPtfNpPZA-tGdA2Cg8-23">
          <mxGeometry relative="1" as="geometry" />
        </mxCell>
        <mxCell id="ffDPtfNpPZA-tGdA2Cg8-21" value="Dados do Bucket" style="shape=parallelogram;perimeter=parallelogramPerimeter;whiteSpace=wrap;html=1;fixedSize=1;" vertex="1" parent="1">
          <mxGeometry x="35" y="810" width="120" height="60" as="geometry" />
        </mxCell>
        <mxCell id="ffDPtfNpPZA-tGdA2Cg8-26" value="" style="edgeStyle=orthogonalEdgeStyle;rounded=0;orthogonalLoop=1;jettySize=auto;html=1;" edge="1" parent="1" source="ffDPtfNpPZA-tGdA2Cg8-23" target="ffDPtfNpPZA-tGdA2Cg8-25">
          <mxGeometry relative="1" as="geometry" />
        </mxCell>
        <mxCell id="ffDPtfNpPZA-tGdA2Cg8-23" value="Processadas e filtradas pelo Rekognition" style="whiteSpace=wrap;html=1;" vertex="1" parent="1">
          <mxGeometry x="35" y="910" width="120" height="60" as="geometry" />
        </mxCell>
        <mxCell id="ffDPtfNpPZA-tGdA2Cg8-29" value="" style="edgeStyle=orthogonalEdgeStyle;rounded=0;orthogonalLoop=1;jettySize=auto;html=1;" edge="1" parent="1" source="ffDPtfNpPZA-tGdA2Cg8-25" target="ffDPtfNpPZA-tGdA2Cg8-28">
          <mxGeometry relative="1" as="geometry" />
        </mxCell>
        <mxCell id="ffDPtfNpPZA-tGdA2Cg8-31" value="" style="edgeStyle=orthogonalEdgeStyle;rounded=0;orthogonalLoop=1;jettySize=auto;html=1;" edge="1" parent="1" source="ffDPtfNpPZA-tGdA2Cg8-25" target="ffDPtfNpPZA-tGdA2Cg8-30">
          <mxGeometry relative="1" as="geometry" />
        </mxCell>
        <mxCell id="ffDPtfNpPZA-tGdA2Cg8-25" value="Detecção de texto da placa do carro" style="whiteSpace=wrap;html=1;" vertex="1" parent="1">
          <mxGeometry x="35" y="1020" width="120" height="60" as="geometry" />
        </mxCell>
        <mxCell id="ffDPtfNpPZA-tGdA2Cg8-28" value="Fim rekognition" style="ellipse;whiteSpace=wrap;html=1;" vertex="1" parent="1">
          <mxGeometry x="212.5" y="1020" width="115" height="60" as="geometry" />
        </mxCell>
        <mxCell id="ffDPtfNpPZA-tGdA2Cg8-33" value="" style="edgeStyle=orthogonalEdgeStyle;rounded=0;orthogonalLoop=1;jettySize=auto;html=1;" edge="1" parent="1" source="ffDPtfNpPZA-tGdA2Cg8-30" target="ffDPtfNpPZA-tGdA2Cg8-32">
          <mxGeometry relative="1" as="geometry" />
        </mxCell>
        <mxCell id="ffDPtfNpPZA-tGdA2Cg8-30" value="Recebe os dados do rekognition" style="shape=parallelogram;perimeter=parallelogramPerimeter;whiteSpace=wrap;html=1;fixedSize=1;" vertex="1" parent="1">
          <mxGeometry x="35" y="1150" width="120" height="60" as="geometry" />
        </mxCell>
        <mxCell id="ffDPtfNpPZA-tGdA2Cg8-35" value="" style="edgeStyle=orthogonalEdgeStyle;rounded=0;orthogonalLoop=1;jettySize=auto;html=1;" edge="1" parent="1" source="ffDPtfNpPZA-tGdA2Cg8-32" target="ffDPtfNpPZA-tGdA2Cg8-36">
          <mxGeometry relative="1" as="geometry">
            <mxPoint x="255" y="1320.0000000000002" as="targetPoint" />
          </mxGeometry>
        </mxCell>
        <mxCell id="ffDPtfNpPZA-tGdA2Cg8-32" value="Processamento de dados no Kinesis" style="whiteSpace=wrap;html=1;" vertex="1" parent="1">
          <mxGeometry x="35" y="1290" width="120" height="60" as="geometry" />
        </mxCell>
        <mxCell id="ffDPtfNpPZA-tGdA2Cg8-39" value="" style="edgeStyle=orthogonalEdgeStyle;rounded=0;orthogonalLoop=1;jettySize=auto;html=1;" edge="1" parent="1" source="ffDPtfNpPZA-tGdA2Cg8-36" target="ffDPtfNpPZA-tGdA2Cg8-38">
          <mxGeometry relative="1" as="geometry" />
        </mxCell>
        <mxCell id="ffDPtfNpPZA-tGdA2Cg8-36" value="A informação de possivel colisão é enviada para um operador&lt;br&gt;" style="shape=trapezoid;perimeter=trapezoidPerimeter;whiteSpace=wrap;html=1;fixedSize=1;rotation=0;" vertex="1" parent="1">
          <mxGeometry x="240" y="1300" width="150" height="75" as="geometry" />
        </mxCell>
        <mxCell id="ffDPtfNpPZA-tGdA2Cg8-37" value="#não achei o diagrama de operação manual então coloquei esse, é o mesmo porem invertido" style="text;html=1;strokeColor=none;fillColor=none;align=center;verticalAlign=middle;whiteSpace=wrap;rounded=0;" vertex="1" parent="1">
          <mxGeometry x="180" y="1240" width="290" height="30" as="geometry" />
        </mxCell>
        <mxCell id="ffDPtfNpPZA-tGdA2Cg8-41" value="" style="edgeStyle=orthogonalEdgeStyle;rounded=0;orthogonalLoop=1;jettySize=auto;html=1;" edge="1" parent="1" source="ffDPtfNpPZA-tGdA2Cg8-38" target="ffDPtfNpPZA-tGdA2Cg8-40">
          <mxGeometry relative="1" as="geometry" />
        </mxCell>
        <mxCell id="ffDPtfNpPZA-tGdA2Cg8-44" style="edgeStyle=orthogonalEdgeStyle;rounded=0;orthogonalLoop=1;jettySize=auto;html=1;" edge="1" parent="1" source="ffDPtfNpPZA-tGdA2Cg8-38" target="ffDPtfNpPZA-tGdA2Cg8-43">
          <mxGeometry relative="1" as="geometry" />
        </mxCell>
        <mxCell id="ffDPtfNpPZA-tGdA2Cg8-47" style="edgeStyle=orthogonalEdgeStyle;rounded=0;orthogonalLoop=1;jettySize=auto;html=1;" edge="1" parent="1" source="ffDPtfNpPZA-tGdA2Cg8-38" target="ffDPtfNpPZA-tGdA2Cg8-46">
          <mxGeometry relative="1" as="geometry" />
        </mxCell>
        <mxCell id="ffDPtfNpPZA-tGdA2Cg8-38" value="Informar emergência" style="rhombus;whiteSpace=wrap;html=1;" vertex="1" parent="1">
          <mxGeometry x="270" y="1420" width="130" height="80" as="geometry" />
        </mxCell>
        <mxCell id="ffDPtfNpPZA-tGdA2Cg8-40" value="Enviado um aviso para a emergência" style="whiteSpace=wrap;html=1;" vertex="1" parent="1">
          <mxGeometry x="65" y="1430" width="120" height="60" as="geometry" />
        </mxCell>
        <mxCell id="ffDPtfNpPZA-tGdA2Cg8-42" value="s" style="text;html=1;strokeColor=none;fillColor=none;align=center;verticalAlign=middle;whiteSpace=wrap;rounded=0;" vertex="1" parent="1">
          <mxGeometry x="200" y="1430" width="60" height="30" as="geometry" />
        </mxCell>
        <mxCell id="ffDPtfNpPZA-tGdA2Cg8-43" value="A opção é descartada e o modelo aprende com o erro" style="rounded=0;whiteSpace=wrap;html=1;" vertex="1" parent="1">
          <mxGeometry x="470" y="1430" width="120" height="60" as="geometry" />
        </mxCell>
        <mxCell id="ffDPtfNpPZA-tGdA2Cg8-45" value="n" style="text;html=1;strokeColor=none;fillColor=none;align=center;verticalAlign=middle;whiteSpace=wrap;rounded=0;" vertex="1" parent="1">
          <mxGeometry x="400" y="1430" width="60" height="30" as="geometry" />
        </mxCell>
        <mxCell id="ffDPtfNpPZA-tGdA2Cg8-46" value="Fim" style="ellipse;whiteSpace=wrap;html=1;" vertex="1" parent="1">
          <mxGeometry x="295" y="1570" width="80" height="60" as="geometry" />
        </mxCell>
      </root>
    </mxGraphModel>
  </diagram>
</mxfile>
